<?xml version="1.0" encoding="UTF-8" standalone="no"?>
<svg width="512px" height="428px" viewBox="0 0 512 428" version="1.1" xmlns="http://www.w3.org/2000/svg" xmlns:xlink="http://www.w3.org/1999/xlink">
<!-- Generator: Sketch 42 (36781) - http://www.bohemiancoding.com/sketch -->
<title>Group 60</title>
<desc>Created with Sketch.</desc>
<defs></defs>
<g id="Page-1" stroke="none" stroke-width="1" fill="none" fill-rule="evenodd">
    <g id="Group-60">
        <polygon id="Shape" fill="#00AEEF" fill-rule="nonzero" points="362.587 0.65 149.301 0.65 0 85.959 42.662 203.268 106.647 181.937 106.647 427.232 405.25 427.232 405.25 181.937 469.236 203.268 511.882 85.959"></polygon>
        <path d="M255.948,75.297 C297.181,75.297 330.595,41.875 330.595,0.65 L181.294,0.65 C181.294,41.875 214.716,75.297 255.948,75.297 Z" id="Shape" fill="#0098D0" fill-rule="nonzero"></path>
        <g id="Group-59" transform="translate(206.000000, 145.000000)">
            <path d="M73.8780104,6.65627143 C66.6665402,2.4912 58.3056808,0.0845571429 49.3761579,0.0556285714 C40.3393645,0.0333428571 31.8746809,2.44491429 24.5873889,6.65627143 C17.3716107,2.52912857 9.01182826,0.1647 0.0937217559,0.188914286 L0.0937217559,49.0803429 C-0.058352617,103.107986 44.1084826,146.710414 98.3675849,146.863843 L98.3675849,49.0803429 L98.3675849,0.188914286 C89.4537865,0.1647 81.094004,2.52912857 73.8780104,6.65627143" id="Fill-42" fill="#000000"></path>
            <path d="M70.294828,52.8099429 C62.5349423,52.7898 56.2615513,46.5138 56.2839532,38.7928714 C56.2884767,37.3571571 56.5118494,35.9660143 56.9228379,34.6633714 C58.0129915,37.0972286 60.457167,38.8040143 63.3121156,38.8130143 C67.1893659,38.8239429 70.3439398,35.7060857 70.3527714,31.8476571 C70.3618183,29.0075143 68.6592746,26.5693714 66.2153145,25.4692286 C67.5290561,25.0668 68.9274511,24.8538 70.3749578,24.8583 C78.1318279,24.8801571 84.4090961,31.1544429 84.3866942,38.8749429 C84.3601997,46.5958714 78.0512672,52.8341571 70.294828,52.8099429 M28.1439475,52.6920857 C20.3877237,52.6700143 14.1098093,46.3957286 14.1345806,38.6773714 C14.1543977,30.9566571 20.472377,24.7138714 28.2288163,24.7380857 C29.674169,24.7428 31.0661019,24.9624429 32.3796281,25.3715143 C29.9313599,26.4562286 28.2199847,28.8830143 28.2111532,31.7253 C28.1999523,35.5835143 31.3319089,38.7240857 35.2100208,38.7350143 C38.0630308,38.7416571 40.5160379,37.0505143 41.6242852,34.6190143 C42.0240728,35.9259429 42.240768,37.3149429 42.2362446,38.7551571 C42.2116887,46.4737286 35.9051256,52.7165143 28.1439475,52.6920857 M70.3928363,17.8685143 C59.393508,17.8374429 50.3414209,26.2117286 49.360692,36.9103714 L49.2667764,36.7813714 L49.1750148,36.9103714 C48.2524446,26.2048714 39.2516235,17.7795857 28.2466947,17.7485143 C16.6074047,17.7129429 7.14842176,27.0763714 7.11740376,38.6529429 C7.08143149,50.2361571 16.4867791,59.6484429 28.1262845,59.6795143 C32.26568,59.6928 36.1194514,58.4994429 39.3812959,56.4545143 L49.1797537,66.2580857 L59.0361547,56.5123714 C62.2889523,58.5727286 66.1304458,59.7862286 70.2722107,59.7995143 C81.9162396,59.8350857 91.3750071,50.4718714 91.4105485,38.8950857 C91.4419974,27.3161571 82.0368651,17.8995857 70.3928363,17.8685143" id="Fill-43" fill="#FFFFFF"></path>
        </g>
    </g>
</g>
</svg>